HIERARCHY
ROOT Hips
{
    OFFSET 0.000000 0.000000 0.000000
    CHANNELS 6 Xposition Yposition Zposition Zrotation Yrotation Xrotation
    JOINT Chest
    {
        OFFSET 0.000000 1.634758 -0.000000
        CHANNELS 3 Zrotation Yrotation Xrotation
        JOINT Chest2
        {
            OFFSET 0.000000 2.197341 0.000000
            CHANNELS 3 Zrotation Yrotation Xrotation
            JOINT Neck
            {
                OFFSET 0.000000 0.961544 0.000000
                CHANNELS 3 Zrotation Yrotation Xrotation
                JOINT Head
                {
                    OFFSET 0.000000 0.632542 -0.032565
                    CHANNELS 3 Zrotation Yrotation Xrotation
                    End Site
                    {
                        OFFSET -0.000001 0.439502 2.922845
                    }
                }
            }
            JOINT LeftCollar
            {
                OFFSET 0.167536 0.778237 -0.168280
                CHANNELS 3 Zrotation Yrotation Xrotation
                JOINT LeftShoulder
                {
                    OFFSET 0.831514 -0.002900 0.006458
                    CHANNELS 3 Zrotation Yrotation Xrotation
                    JOINT LeftElbow
                    {
                        OFFSET 2.272872 -0.026639 0.059314
                        CHANNELS 3 Zrotation Yrotation Xrotation
                        JOINT LeftWrist
                        {
                            OFFSET 2.081982 -0.024402 0.054333
                            CHANNELS 3 Zrotation Yrotation Xrotation
                            JOINT LeftHandThumb1
                            {
                                OFFSET 0.218903 -0.128645 0.283837
                                CHANNELS 3 Zrotation Yrotation Xrotation
                                JOINT LeftHandThumb2
                                {
                                    OFFSET 0.137157 -0.025101 0.077902
                                    CHANNELS 3 Zrotation Yrotation Xrotation
                                    JOINT LeftHandThumb3
                                    {
                                        OFFSET 0.174382 -0.013597 -0.054271
                                        CHANNELS 3 Zrotation Yrotation Xrotation
                                        End Site
                                        {
                                            OFFSET 0.265225 -0.014064 -0.035976
                                        }
                                    }
                                }
                            }
                            JOINT LeftHandFore1
                            {
                                OFFSET 0.767340 -0.016076 0.196678
                                CHANNELS 3 Zrotation Yrotation Xrotation
                                JOINT LeftHandFore2
                                {
                                    OFFSET 0.209402 -0.053339 0.017355
                                    CHANNELS 3 Zrotation Yrotation Xrotation
                                    JOINT LeftHandFore3
                                    {
                                        OFFSET 0.112817 -0.062483 0.011445
                                        CHANNELS 3 Zrotation Yrotation Xrotation
                                        End Site
                                        {
                                            OFFSET 0.141705 -0.130702 0.014270
                                        }
                                    }
                                }
                            }
                            JOINT LeftHandMiddle1
                            {
                                OFFSET 0.709887 -0.008320 0.018526
                                CHANNELS 3 Zrotation Yrotation Xrotation
                                JOINT LeftHandMiddle2
                                {
                                    OFFSET 0.234000 -0.070929 0.016640
                                    CHANNELS 3 Zrotation Yrotation Xrotation
                                    JOINT LeftHandMiddle3
                                    {
                                        OFFSET 0.117695 -0.086117 0.010730
                                        CHANNELS 3 Zrotation Yrotation Xrotation
                                        End Site
                                        {
                                            OFFSET 0.132876 -0.194099 0.017313
                                        }
                                    }
                                }
                            }
                            JOINT LeftHandRing1
                            {
                                OFFSET 0.743817 -0.005823 -0.153668
                                CHANNELS 3 Zrotation Yrotation Xrotation
                                JOINT LeftHandRing2
                                {
                                    OFFSET 0.336037 -0.108665 0.002139
                                    CHANNELS 3 Zrotation Yrotation Xrotation
                                    JOINT LeftHandRing3
                                    {
                                        OFFSET 0.089045 -0.103016 0.008018
                                        CHANNELS 3 Zrotation Yrotation Xrotation
                                        End Site
                                        {
                                            OFFSET 0.049840 -0.109042 0.006750
                                        }
                                    }
                                }
                            }
                            JOINT LeftHandLittle1
                            {
                                OFFSET 0.689408 -0.053302 -0.308304
                                CHANNELS 3 Zrotation Yrotation Xrotation
                                JOINT LeftHandLittle2
                                {
                                    OFFSET 0.193649 -0.023348 -0.003025
                                    CHANNELS 3 Zrotation Yrotation Xrotation
                                    JOINT LeftHandLittle3
                                    {
                                        OFFSET 0.097052 -0.070999 0.006017
                                        CHANNELS 3 Zrotation Yrotation Xrotation
                                        End Site
                                        {
                                            OFFSET 0.065733 -0.174840 0.037399
                                        }
                                    }
                                }
                            }
                        }
                    }
                }
            }
            JOINT RightCollar
            {
                OFFSET -0.167536 0.778237 -0.168280
                CHANNELS 3 Zrotation Yrotation Xrotation
                JOINT RightShoulder
                {
                    OFFSET -0.831514 -0.002900 0.006457
                    CHANNELS 3 Zrotation Yrotation Xrotation
                    JOINT RightElbow
                    {
                        OFFSET -2.272872 -0.026639 0.059313
                        CHANNELS 3 Zrotation Yrotation Xrotation
                        JOINT RightWrist
                        {
                            OFFSET -2.081982 -0.024402 0.054331
                            CHANNELS 3 Zrotation Yrotation Xrotation
                            JOINT RightHandThumb1
                            {
                                OFFSET -0.218911 -0.128571 0.283837
                                CHANNELS 3 Zrotation Yrotation Xrotation
                                JOINT RightHandThumb2
                                {
                                    OFFSET -0.137157 -0.025101 0.077902
                                    CHANNELS 3 Zrotation Yrotation Xrotation
                                    JOINT RightHandThumb3
                                    {
                                        OFFSET -0.097615 -0.150407 0.037262
                                        CHANNELS 3 Zrotation Yrotation Xrotation
                                        End Site
                                        {
                                            OFFSET -0.164067 -0.194342 0.084556
                                        }
                                    }
                                }
                            }
                            JOINT RightHandFore1
                            {
                                OFFSET -0.767344 -0.015991 0.196679
                                CHANNELS 3 Zrotation Yrotation Xrotation
                                JOINT RightHandFore2
                                {
                                    OFFSET -0.209417 -0.053291 0.017358
                                    CHANNELS 3 Zrotation Yrotation Xrotation
                                    JOINT RightHandFore3
                                    {
                                        OFFSET -0.113045 -0.062512 0.008669
                                        CHANNELS 3 Zrotation Yrotation Xrotation
                                        End Site
                                        {
                                            OFFSET -0.141798 -0.130713 0.013194
                                        }
                                    }
                                }
                            }
                            JOINT RightHandMiddle1
                            {
                                OFFSET -0.709887 -0.008302 0.018525
                                CHANNELS 3 Zrotation Yrotation Xrotation
                                JOINT RightHandMiddle2
                                {
                                    OFFSET -0.233989 -0.070949 0.016648
                                    CHANNELS 3 Zrotation Yrotation Xrotation
                                    JOINT RightHandMiddle3
                                    {
                                        OFFSET -0.117942 -0.086166 0.007028
                                        CHANNELS 3 Zrotation Yrotation Xrotation
                                        End Site
                                        {
                                            OFFSET -0.133736 -0.194223 0.004730
                                        }
                                    }
                                }
                            }
                            JOINT RightHandRing1
                            {
                                OFFSET -0.743819 -0.005785 -0.153669
                                CHANNELS 3 Zrotation Yrotation Xrotation
                                JOINT RightHandRing2
                                {
                                    OFFSET -0.336043 -0.108645 0.002198
                                    CHANNELS 3 Zrotation Yrotation Xrotation
                                    JOINT RightHandRing3
                                    {
                                        OFFSET -0.089710 -0.101397 -0.016605
                                        CHANNELS 3 Zrotation Yrotation Xrotation
                                        End Site
                                        {
                                            OFFSET -0.050519 -0.107388 -0.018328
                                        }
                                    }
                                }
                            }
                            JOINT RightHandLittle1
                            {
                                OFFSET -0.689403 -0.053298 -0.308303
                                CHANNELS 3 Zrotation Yrotation Xrotation
                                JOINT RightHandLittle2
                                {
                                    OFFSET -0.193653 -0.023340 -0.003017
                                    CHANNELS 3 Zrotation Yrotation Xrotation
                                    JOINT RightHandLittle3
                                    {
                                        OFFSET -0.096826 -0.070499 -0.012252
                                        CHANNELS 3 Zrotation Yrotation Xrotation
                                        End Site
                                        {
                                            OFFSET -0.064643 -0.172516 -0.048456
                                        }
                                    }
                                }
                            }
                        }
                    }
                }
            }
        }
    }
    JOINT LeftHip
    {
        OFFSET 0.685143 0.673822 -0.044491
        CHANNELS 3 Zrotation Yrotation Xrotation
        JOINT LeftKnee
        {
            OFFSET 0.085364 -3.750208 0.017676
            CHANNELS 3 Zrotation Yrotation Xrotation
            JOINT LeftAnkle
            {
                OFFSET 0.094583 -4.155206 0.019585
                CHANNELS 3 Zrotation Yrotation Xrotation
                JOINT LeftToe
                {
                    OFFSET -0.000000 -0.395925 0.621478
                    CHANNELS 3 Zrotation Yrotation Xrotation
                    End Site
                    {
                        OFFSET -0.000000 -0.077878 0.321152
                    }
                }
            }
        }
    }
    JOINT RightHip
    {
        OFFSET -0.685143 0.673822 -0.044492
        CHANNELS 3 Zrotation Yrotation Xrotation
        JOINT RightKnee
        {
            OFFSET -0.085364 -3.750208 0.017677
            CHANNELS 3 Zrotation Yrotation Xrotation
            JOINT RightAnkle
            {
                OFFSET -0.094583 -4.155206 0.019585
                CHANNELS 3 Zrotation Yrotation Xrotation
                JOINT RightToe
                {
                    OFFSET -0.000000 -0.395925 0.621478
                    CHANNELS 3 Zrotation Yrotation Xrotation
                    End Site
                    {
                        OFFSET -0.000000 -0.077878 0.321152
                    }
                }
            }
        }
    }
}
MOTION
Frames: 4
Frame Time: 0.033333
-0.025405 8.274338 -0.489262 180.000000 -0.000011 180.000000 -0.160840 5.837684 -4.043903 -0.669224 -0.852413 -3.803376 -17.690588 0.460251 4.472930 0.030439 -0.591105 11.200103 -1.263930 1.110319 -0.016719 -4.569650 9.168549 -0.273254 0.033267 -17.976242 -0.217667 -32.734364 5.071339 -34.807716 0.000004 -0.000001 0.000000 3.288872 -1.194530 15.297662 -0.356428 3.822761 0.157611 -9.376114 9.645677 -0.626941 14.206161 0.653811 -0.076443 3.981606 0.223652 -0.103067 -9.764784 2.724330 0.184833 24.587498 1.276278 -0.943134 14.425030 0.702569 -0.619632 -5.411418 -3.116431 -1.085473 23.742985 1.583907 0.369155 1.945230 0.148361 -0.061422 12.261552 7.980286 -2.510620 17.627119 5.298753 -0.213389 30.260723 5.112875 2.237550 -0.523431 9.322800 -0.037369 -61.133747 55.681938 -33.471752 -177.132889 72.286499 -177.913055 -27.470291 12.773293 0.282353 -0.000007 0.000005 -0.000005 9.297384 -6.597095 -12.303811 3.208844 -1.132366 2.845697 9.966937 -9.461609 -0.713139 -13.117947 -0.161766 -1.885222 -3.001500 0.019114 -0.375923 12.899937 -2.558885 0.253561 -24.555237 0.116045 -2.163908 -13.442709 0.166211 -1.196045 6.066717 3.304485 -1.034345 -23.379427 4.277582 -2.238456 -0.966103 0.203772 -0.024081 -11.781960 -7.386743 -2.459716 -17.284319 6.088923 0.551862 -29.007080 6.657153 -1.830962 -0.471965 6.561486 -4.398021 0.042946 0.331897 14.743217 -1.313073 -3.175974 -14.724051 -0.030881 -0.205437 -5.082687 -0.022332 -14.202826 -4.081729 -0.038427 -0.314280 13.944215 9.942591 6.790877 -13.096609 0.146293 0.968599 -5.041468
-0.025405 8.274338 -0.489262 180.000000 -0.000011 180.000000 -0.115112 5.073887 -3.993602 -0.685105 -0.735067 -3.959996 -18.652061 1.501470 4.484493 -0.084051 1.632213 11.161126 -0.108750 -0.354792 -0.004936 -0.701644 7.801007 -0.397874 0.066693 -24.829897 -0.310300 -27.085875 4.795072 -30.624926 -0.000001 -0.000009 0.000003 4.179270 2.277089 18.402330 -0.610844 6.609305 0.257964 -12.078488 8.789473 -1.114773 9.803572 0.449431 -0.070131 -0.418036 -0.012848 0.018370 -24.094835 2.006061 0.544527 21.271044 1.100255 -0.887176 10.028292 0.474446 -0.446675 -8.409023 -3.984277 -0.797837 23.724997 1.237134 0.184542 -2.447802 -0.183565 0.084396 10.068189 5.255367 -2.257840 17.611300 4.379240 -0.481276 25.887648 4.461272 1.752502 -2.152568 9.660283 -0.057647 -48.365582 46.490852 -29.062098 -177.095428 72.593132 -177.873749 -30.894598 12.298120 -1.037122 0.000001 0.000002 -0.000003 13.569428 -8.163378 -12.524811 5.109824 -1.888505 4.524685 12.548780 -8.639636 -1.173798 -8.949150 -0.063282 -1.288747 1.180024 -0.021933 0.153264 26.602606 -1.888384 0.629616 -20.478308 0.163257 -1.800104 -9.243551 0.144979 -0.819527 8.934513 4.131850 -0.752704 -23.404640 3.949530 -2.059011 3.156678 -0.668195 0.054647 -9.683024 -4.782889 -2.204399 -17.312237 5.214823 0.818789 -24.859655 5.781286 -1.366599 -0.646310 3.370148 -4.340969 0.042946 0.331897 14.743215 1.283725 -1.358131 -15.058318 0.005078 0.032871 -4.845716 -0.141924 -16.423891 -4.096314 -0.038385 -0.314107 13.936436 11.359889 8.227051 -12.580629 0.165448 1.082402 -4.939726
-0.025405 8.274338 -0.489262 180.000000 -0.000011 180.000000 -0.076927 4.122469 -3.934057 -0.624720 -0.594377 -4.154085 -17.927731 2.169677 4.872446 -0.162909 3.161291 11.796606 1.089212 -2.862172 -0.001481 3.503871 3.238404 -0.566005 0.127692 -33.101418 -0.437019 -14.790547 4.736355 -26.240690 0.000002 -0.000005 0.000003 5.374749 5.485703 21.406462 -0.849669 9.258026 0.342368 -14.634389 7.955570 -1.539143 5.618735 0.256174 -0.049605 -4.599934 -0.228382 0.150281 -37.713581 1.425985 1.041201 17.093390 0.859267 -0.746165 5.849041 0.270555 -0.266563 -11.265205 -4.794086 -0.482286 21.618143 0.985063 0.062210 -6.623837 -0.487794 0.246183 7.979037 2.676279 -1.921756 14.753467 3.444667 -0.564297 21.740086 3.809532 1.339286 -3.585302 9.715528 -0.066938 -38.083805 33.071720 -24.625898 -177.036560 73.053818 -177.812103 -34.959187 12.439238 -1.375371 -0.000003 0.000002 -0.000002 17.636036 -9.463247 -12.884546 6.866350 -2.644777 6.070938 14.950295 -7.853802 -1.569189 -5.051767 -0.010705 -0.726067 5.086726 -0.095064 0.643789 39.406456 -1.358861 1.115360 -16.554241 0.182051 -1.452504 -5.319948 0.100269 -0.469983 11.620780 4.891344 -0.452011 -20.818243 3.469122 -1.701791 7.009112 -1.486165 0.071388 -7.716770 -2.359698 -1.880405 -14.012730 4.123827 0.810913 -20.996212 4.934708 -0.991796 -0.801861 0.565793 -4.282912 0.042946 0.331897 14.743217 4.079289 -0.164079 -15.084198 0.041732 0.269389 -4.824390 -0.243330 -18.297342 -4.104360 -0.038342 -0.313938 13.928646 12.988726 9.210376 -12.016473 0.187419 1.219433 -4.892373
-0.025405 8.274338 -0.489262 180.000000 -0.000011 180.000000 -0.009250 2.996461 -3.883944 -0.614335 -0.422961 -4.316229 -15.957651 2.507943 5.983323 -0.213087 4.131953 13.791994 2.445254 -4.630091 -0.001420 8.728650 0.121009 -0.855843 0.195921 -39.517639 -0.552755 -2.670078 6.240605 -30.310030 -0.000012 -0.000012 0.000003 6.648363 8.103534 23.999151 -1.049575 11.492398 0.405366 -16.781498 7.238239 -1.866990 2.089075 0.094668 -0.021382 -8.127810 -0.402274 0.273547 -49.202053 1.039129 1.556765 13.569574 0.664480 -0.613837 2.323470 0.109143 -0.103415 -13.680567 -5.464226 -0.184586 18.087696 0.826902 0.026692 -10.147149 -0.734663 0.399573 6.207316 0.511608 -1.565699 11.317865 2.631386 -0.512463 18.247736 3.237859 1.028467 -4.590240 9.442677 -0.062325 -26.349211 20.389479 -22.274652 -176.386978 76.872032 -177.139648 -39.114239 12.776388 -0.717371 0.000005 0.000005 -0.000014 21.078560 -10.415419 -13.285491 8.315327 -3.310894 7.342330 16.944431 -7.186762 -1.872622 -1.802804 0.003823 -0.255221 8.342488 -0.181465 1.048071 50.080009 -1.008833 1.601792 -13.283134 0.179499 -1.162319 -2.049884 0.044787 -0.181548 13.865316 5.513047 -0.174012 -17.571917 2.973982 -1.355674 10.221315 -2.167538 0.043275 -6.068905 -0.349450 -1.547213 -10.874366 3.184747 0.717260 -17.783798 4.211197 -0.724041 -1.090795 -4.498478 -4.158433 0.042946 0.331897 14.743215 6.424532 3.064520 -14.662252 0.077051 0.506933 -4.987995 -0.313784 -19.591415 -4.106816 -0.038301 -0.313770 13.921110 14.766654 9.547587 -11.490696 0.212093 1.383734 -4.915639
